<svg preserveAspectRatio="none" overflow="visible" style="display: block;" width="48" height="48" viewBox="0 0 48 48" fill="none" xmlns="http://www.w3.org/2000/svg">
<g id="temporary stay">
<foreignObject x="4.97875" y="2.97875" width="37.2387" height="40.0406"><div xmlns="http://www.w3.org/1999/xhtml" style="backdrop-filter:blur(0.86px);clip-path:url(#bgblur_0_0_308_clip_path);height:100%;width:100%"></div></foreignObject><path id="base" data-figma-bg-blur-radius="1.72125" d="M20.209 6.12598C21.6866 4.46882 24.2619 4.41901 25.8027 6.01758L39.2783 19.998C39.9635 20.7089 40.3457 21.6582 40.3457 22.6455V37.334C40.3455 39.4405 38.6378 41.1484 36.5312 41.1484H30.7119C28.6053 41.1484 26.8977 39.4405 26.8975 37.334V30.8613C26.8975 29.0394 25.4196 27.5615 23.5977 27.5615C21.7759 27.5617 20.2988 29.0395 20.2988 30.8613V37.334C20.2986 39.4405 18.5909 41.1484 16.4844 41.1484H10.6641C8.5577 41.1482 6.84981 39.4404 6.84961 37.334V22.5635C6.84961 21.6273 7.19437 20.7232 7.81738 20.0244L20.209 6.12598Z" fill="url(#paint0_linear_0_308)" fill-opacity="0.8" stroke="url(#paint1_linear_0_308)" stroke-width="0.3"/>
<path id="Vector" d="M37.0911 8.33594C39.0655 8.33594 40.6661 9.98668 40.6661 12.2977C40.6661 16.3936 36.8379 18.9339 34.8354 20.1485C34.4232 20.3985 33.9089 20.3985 33.4967 20.1485C31.4942 18.9339 27.666 16.3936 27.666 12.2977C27.666 9.98668 29.291 8.33594 31.241 8.33594C32.45 8.33594 33.516 8.99623 34.166 9.65653C34.816 8.99623 35.882 8.33594 37.0911 8.33594Z" fill="#6568F4"/>
</g>
<defs>
<clipPath id="bgblur_0_0_308_clip_path" transform="translate(-4.97875 -2.97875)"><path d="M20.209 6.12598C21.6866 4.46882 24.2619 4.41901 25.8027 6.01758L39.2783 19.998C39.9635 20.7089 40.3457 21.6582 40.3457 22.6455V37.334C40.3455 39.4405 38.6378 41.1484 36.5312 41.1484H30.7119C28.6053 41.1484 26.8977 39.4405 26.8975 37.334V30.8613C26.8975 29.0394 25.4196 27.5615 23.5977 27.5615C21.7759 27.5617 20.2988 29.0395 20.2988 30.8613V37.334C20.2986 39.4405 18.5909 41.1484 16.4844 41.1484H10.6641C8.5577 41.1482 6.84981 39.4404 6.84961 37.334V22.5635C6.84961 21.6273 7.19437 20.7232 7.81738 20.0244L20.209 6.12598Z"/>
</clipPath><linearGradient id="paint0_linear_0_308" x1="0.717881" y1="-11.0626" x2="43.6608" y2="50.8341" gradientUnits="userSpaceOnUse">
<stop stop-color="#6568F4"/>
<stop offset="1" stop-color="#F0F0FE"/>
</linearGradient>
<linearGradient id="paint1_linear_0_308" x1="25.6024" y1="-12.4366" x2="21.1192" y2="60.5159" gradientUnits="userSpaceOnUse">
<stop stop-color="#6568F4"/>
<stop offset="1" stop-color="#E7E7FF"/>
</linearGradient>
</defs>
</svg>
